<mxfile host="65bd71144e">
    <diagram id="lxpTp4fASa2v775-ZQ52" name="Page-1">
        <mxGraphModel dx="1854" dy="608" grid="1" gridSize="10" guides="1" tooltips="1" connect="1" arrows="1" fold="1" page="1" pageScale="1" pageWidth="850" pageHeight="1100" math="0" shadow="0">
            <root>
                <mxCell id="0"/>
                <mxCell id="1" parent="0"/>
                <mxCell id="Kls-efI1VxmwVfYrMtrJ-11" value="" style="group" parent="1" vertex="1" connectable="0">
                    <mxGeometry x="620" y="80" width="330" height="340" as="geometry"/>
                </mxCell>
                <mxCell id="Kls-efI1VxmwVfYrMtrJ-12" value="" style="rounded=0;whiteSpace=wrap;html=1;" parent="Kls-efI1VxmwVfYrMtrJ-11" vertex="1">
                    <mxGeometry width="330" height="340" as="geometry"/>
                </mxCell>
                <mxCell id="Kls-efI1VxmwVfYrMtrJ-13" value="" style="group" parent="Kls-efI1VxmwVfYrMtrJ-11" vertex="1" connectable="0">
                    <mxGeometry width="330" height="250" as="geometry"/>
                </mxCell>
                <mxCell id="Kls-efI1VxmwVfYrMtrJ-14" value="Jenkins project" style="text;html=1;strokeColor=none;fillColor=none;align=center;verticalAlign=middle;whiteSpace=wrap;rounded=0;" parent="Kls-efI1VxmwVfYrMtrJ-13" vertex="1">
                    <mxGeometry width="100" height="25" as="geometry"/>
                </mxCell>
                <mxCell id="Kls-efI1VxmwVfYrMtrJ-16" value="" style="rounded=0;whiteSpace=wrap;html=1;" parent="Kls-efI1VxmwVfYrMtrJ-11" vertex="1">
                    <mxGeometry x="27.970000000000027" y="40" width="275" height="280" as="geometry"/>
                </mxCell>
                <mxCell id="Kls-efI1VxmwVfYrMtrJ-17" value="Git repo branch &quot;jenkin&quot;" style="text;html=1;strokeColor=none;fillColor=none;align=center;verticalAlign=middle;whiteSpace=wrap;rounded=0;" parent="Kls-efI1VxmwVfYrMtrJ-11" vertex="1">
                    <mxGeometry x="27.03" y="40" width="182.97" height="25" as="geometry"/>
                </mxCell>
                <mxCell id="Kls-efI1VxmwVfYrMtrJ-18" value="sync_script_2 to sync to the new index" style="rounded=0;whiteSpace=wrap;html=1;" parent="Kls-efI1VxmwVfYrMtrJ-11" vertex="1">
                    <mxGeometry x="50.88777777777773" y="89.98884615384617" width="229.16666666666669" height="50" as="geometry"/>
                </mxCell>
                <mxCell id="Kls-efI1VxmwVfYrMtrJ-19" value="config_file for sync_script_2" style="rounded=0;whiteSpace=wrap;html=1;" parent="Kls-efI1VxmwVfYrMtrJ-11" vertex="1">
                    <mxGeometry x="50.88777777777773" y="160.00217948717955" width="229.16666666666669" height="50" as="geometry"/>
                </mxCell>
                <mxCell id="Kls-efI1VxmwVfYrMtrJ-21" value="bash_script&amp;nbsp;&amp;nbsp;" style="rounded=0;whiteSpace=wrap;html=1;" parent="Kls-efI1VxmwVfYrMtrJ-11" vertex="1">
                    <mxGeometry x="50.88777777777773" y="230.00217948717955" width="229.16666666666669" height="50" as="geometry"/>
                </mxCell>
                <mxCell id="Kls-efI1VxmwVfYrMtrJ-6" value="" style="group" parent="1" vertex="1" connectable="0">
                    <mxGeometry x="288" y="80" width="275" height="240" as="geometry"/>
                </mxCell>
                <mxCell id="Kls-efI1VxmwVfYrMtrJ-3" value="" style="rounded=0;whiteSpace=wrap;html=1;" parent="Kls-efI1VxmwVfYrMtrJ-6" vertex="1">
                    <mxGeometry width="275" height="240" as="geometry"/>
                </mxCell>
                <mxCell id="Kls-efI1VxmwVfYrMtrJ-5" value="Git repo branch &quot;live&quot;" style="text;html=1;strokeColor=none;fillColor=none;align=center;verticalAlign=middle;whiteSpace=wrap;rounded=0;" parent="Kls-efI1VxmwVfYrMtrJ-6" vertex="1">
                    <mxGeometry width="120" height="40" as="geometry"/>
                </mxCell>
                <mxCell id="Kls-efI1VxmwVfYrMtrJ-9" value="sync_script_1 for periodically run with cron" style="rounded=0;whiteSpace=wrap;html=1;" parent="Kls-efI1VxmwVfYrMtrJ-6" vertex="1">
                    <mxGeometry x="15.139999999999986" y="39.99551282051283" width="244.72" height="50" as="geometry"/>
                </mxCell>
                <mxCell id="Kls-efI1VxmwVfYrMtrJ-10" value="config_file for sync_script_1" style="rounded=0;whiteSpace=wrap;html=1;" parent="Kls-efI1VxmwVfYrMtrJ-6" vertex="1">
                    <mxGeometry x="15" y="109.99551282051283" width="244.72" height="50" as="geometry"/>
                </mxCell>
                <mxCell id="Kls-efI1VxmwVfYrMtrJ-42" value="bash_script" style="rounded=0;whiteSpace=wrap;html=1;" parent="Kls-efI1VxmwVfYrMtrJ-6" vertex="1">
                    <mxGeometry x="15.139999999999986" y="179.99551282051283" width="244.72" height="50" as="geometry"/>
                </mxCell>
                <mxCell id="Kls-efI1VxmwVfYrMtrJ-22" value="&lt;h1&gt;Deployment steps&lt;/h1&gt;" style="text;html=1;strokeColor=none;fillColor=none;spacing=5;spacingTop=-20;whiteSpace=wrap;overflow=hidden;rounded=0;" parent="1" vertex="1">
                    <mxGeometry x="1100" y="80" width="260" height="40" as="geometry"/>
                </mxCell>
                <mxCell id="Kls-efI1VxmwVfYrMtrJ-35" value="" style="edgeStyle=orthogonalEdgeStyle;rounded=0;orthogonalLoop=1;jettySize=auto;html=1;" parent="1" source="Kls-efI1VxmwVfYrMtrJ-23" target="Kls-efI1VxmwVfYrMtrJ-24" edge="1">
                    <mxGeometry relative="1" as="geometry"/>
                </mxCell>
                <mxCell id="Kls-efI1VxmwVfYrMtrJ-23" value="Developer edit sync_script in personal branch" style="rounded=0;whiteSpace=wrap;html=1;" parent="1" vertex="1">
                    <mxGeometry x="1070" y="140" width="120" height="60" as="geometry"/>
                </mxCell>
                <mxCell id="Kls-efI1VxmwVfYrMtrJ-36" value="" style="edgeStyle=orthogonalEdgeStyle;rounded=0;orthogonalLoop=1;jettySize=auto;html=1;" parent="1" source="Kls-efI1VxmwVfYrMtrJ-24" target="Kls-efI1VxmwVfYrMtrJ-28" edge="1">
                    <mxGeometry relative="1" as="geometry"/>
                </mxCell>
                <mxCell id="Kls-efI1VxmwVfYrMtrJ-24" value="Developer edit config_file in personal branch" style="rounded=0;whiteSpace=wrap;html=1;" parent="1" vertex="1">
                    <mxGeometry x="1070" y="235" width="120" height="60" as="geometry"/>
                </mxCell>
                <mxCell id="Kls-efI1VxmwVfYrMtrJ-38" value="" style="edgeStyle=orthogonalEdgeStyle;rounded=0;orthogonalLoop=1;jettySize=auto;html=1;" parent="1" source="Kls-efI1VxmwVfYrMtrJ-25" target="Kls-efI1VxmwVfYrMtrJ-26" edge="1">
                    <mxGeometry relative="1" as="geometry"/>
                </mxCell>
                <mxCell id="Kls-efI1VxmwVfYrMtrJ-25" value="Developer push sync_script, config_file and bash_script to issue branch" style="rounded=0;whiteSpace=wrap;html=1;" parent="1" vertex="1">
                    <mxGeometry x="1050" y="420" width="160" height="60" as="geometry"/>
                </mxCell>
                <mxCell id="Kls-efI1VxmwVfYrMtrJ-39" value="" style="edgeStyle=orthogonalEdgeStyle;rounded=0;orthogonalLoop=1;jettySize=auto;html=1;" parent="1" source="Kls-efI1VxmwVfYrMtrJ-26" target="Kls-efI1VxmwVfYrMtrJ-27" edge="1">
                    <mxGeometry relative="1" as="geometry"/>
                </mxCell>
                <mxCell id="Kls-efI1VxmwVfYrMtrJ-26" value="Developer merge issue branch to master branch" style="rounded=0;whiteSpace=wrap;html=1;" parent="1" vertex="1">
                    <mxGeometry x="1070" y="520" width="120" height="60" as="geometry"/>
                </mxCell>
                <mxCell id="Kls-efI1VxmwVfYrMtrJ-43" style="edgeStyle=orthogonalEdgeStyle;rounded=0;orthogonalLoop=1;jettySize=auto;html=1;entryX=0.5;entryY=0;entryDx=0;entryDy=0;" parent="1" source="Kls-efI1VxmwVfYrMtrJ-27" target="Kls-efI1VxmwVfYrMtrJ-29" edge="1">
                    <mxGeometry relative="1" as="geometry">
                        <Array as="points">
                            <mxPoint x="1220" y="650"/>
                            <mxPoint x="1220" y="120"/>
                            <mxPoint x="1310" y="120"/>
                        </Array>
                    </mxGeometry>
                </mxCell>
                <mxCell id="Kls-efI1VxmwVfYrMtrJ-27" value="Developer merge master branch to jenkin" style="rounded=0;whiteSpace=wrap;html=1;" parent="1" vertex="1">
                    <mxGeometry x="1070" y="620" width="120" height="60" as="geometry"/>
                </mxCell>
                <mxCell id="Kls-efI1VxmwVfYrMtrJ-37" value="" style="edgeStyle=orthogonalEdgeStyle;rounded=0;orthogonalLoop=1;jettySize=auto;html=1;" parent="1" source="Kls-efI1VxmwVfYrMtrJ-28" target="Kls-efI1VxmwVfYrMtrJ-25" edge="1">
                    <mxGeometry relative="1" as="geometry"/>
                </mxCell>
                <mxCell id="Kls-efI1VxmwVfYrMtrJ-28" value="Developer edit bash script to specify how sync_script will be ran" style="rounded=0;whiteSpace=wrap;html=1;" parent="1" vertex="1">
                    <mxGeometry x="1070" y="330" width="120" height="60" as="geometry"/>
                </mxCell>
                <mxCell id="Kls-efI1VxmwVfYrMtrJ-40" value="" style="edgeStyle=orthogonalEdgeStyle;rounded=0;orthogonalLoop=1;jettySize=auto;html=1;" parent="1" source="Kls-efI1VxmwVfYrMtrJ-29" target="Kls-efI1VxmwVfYrMtrJ-30" edge="1">
                    <mxGeometry relative="1" as="geometry"/>
                </mxCell>
                <mxCell id="Kls-efI1VxmwVfYrMtrJ-29" value="Developer trigger Jenkins build to run sync_script" style="rounded=0;whiteSpace=wrap;html=1;" parent="1" vertex="1">
                    <mxGeometry x="1250" y="140" width="120" height="60" as="geometry"/>
                </mxCell>
                <mxCell id="Kls-efI1VxmwVfYrMtrJ-41" value="" style="edgeStyle=orthogonalEdgeStyle;rounded=0;orthogonalLoop=1;jettySize=auto;html=1;" parent="1" source="Kls-efI1VxmwVfYrMtrJ-30" target="Kls-efI1VxmwVfYrMtrJ-31" edge="1">
                    <mxGeometry relative="1" as="geometry"/>
                </mxCell>
                <mxCell id="Kls-efI1VxmwVfYrMtrJ-30" value="Sysadmins change alias to track new index according to config_file in jenkin branch" style="rounded=0;whiteSpace=wrap;html=1;" parent="1" vertex="1">
                    <mxGeometry x="1245" y="235" width="130" height="60" as="geometry"/>
                </mxCell>
                <mxCell id="Kls-efI1VxmwVfYrMtrJ-31" value="Developer merge master branch to live branch" style="rounded=0;whiteSpace=wrap;html=1;" parent="1" vertex="1">
                    <mxGeometry x="1250" y="330" width="120" height="60" as="geometry"/>
                </mxCell>
                <mxCell id="Kls-efI1VxmwVfYrMtrJ-34" value="" style="edgeStyle=orthogonalEdgeStyle;rounded=0;orthogonalLoop=1;jettySize=auto;html=1;" parent="1" source="Kls-efI1VxmwVfYrMtrJ-33" target="Kls-efI1VxmwVfYrMtrJ-31" edge="1">
                    <mxGeometry relative="1" as="geometry"/>
                </mxCell>
                <mxCell id="Kls-efI1VxmwVfYrMtrJ-33" value="At this point cron is going to run the new sync_script and use the new config_file" style="text;html=1;strokeColor=none;fillColor=none;align=center;verticalAlign=middle;whiteSpace=wrap;rounded=0;" parent="1" vertex="1">
                    <mxGeometry x="1440" y="320" width="130" height="80" as="geometry"/>
                </mxCell>
                <mxCell id="2" value="" style="rounded=0;whiteSpace=wrap;html=1;" vertex="1" parent="1">
                    <mxGeometry x="-60" y="85" width="290" height="335" as="geometry"/>
                </mxCell>
                <mxCell id="3" value="Directory" style="text;html=1;strokeColor=none;fillColor=none;align=center;verticalAlign=middle;whiteSpace=wrap;rounded=0;" vertex="1" parent="1">
                    <mxGeometry x="-60" y="85" width="60" height="30" as="geometry"/>
                </mxCell>
                <mxCell id="4" value="sync script" style="rounded=0;whiteSpace=wrap;html=1;" vertex="1" parent="1">
                    <mxGeometry x="-37.360000000000014" y="119.99551282051283" width="244.72" height="50" as="geometry"/>
                </mxCell>
                <mxCell id="5" value="config file 1 (periodically)" style="rounded=0;whiteSpace=wrap;html=1;" vertex="1" parent="1">
                    <mxGeometry x="-37.360000000000014" y="189.99551282051283" width="244.72" height="50" as="geometry"/>
                </mxCell>
                <mxCell id="6" value="config file 2 (new deployment)" style="rounded=0;whiteSpace=wrap;html=1;" vertex="1" parent="1">
                    <mxGeometry x="-37.360000000000014" y="259.99551282051283" width="244.72" height="50" as="geometry"/>
                </mxCell>
                <mxCell id="7" value="bash_script" style="rounded=0;whiteSpace=wrap;html=1;" vertex="1" parent="1">
                    <mxGeometry x="-37.360000000000014" y="329.99551282051283" width="244.72" height="50" as="geometry"/>
                </mxCell>
            </root>
        </mxGraphModel>
    </diagram>
</mxfile>